<svg xmlns="http://www.w3.org/2000/svg" width="1200" height="600" viewBox="0 0 1200 600">
  <defs>
    <linearGradient id="g5" x1="0" y1="0" x2="1" y2="1">
      <stop offset="0" stop-color="#2b3340"/><stop offset="1" stop-color="#100d16"/>
    </linearGradient>
  </defs>
  <rect width="1200" height="600" fill="url(#g5)"/>
  <g fill="none" stroke="#5b8db8" stroke-opacity="0.35" stroke-width="2">
    <rect x="80" y="260" width="160" height="280"/>
    <rect x="280" y="200" width="160" height="340"/>
    <rect x="480" y="240" width="160" height="300"/>
    <rect x="680" y="180" width="160" height="360"/>
    <rect x="880" y="260" width="160" height="280"/>
  </g>
  <g fill="#f5a623" fill-opacity="0.75">
    <rect x="110" y="300" width="40" height="40"/><rect x="170" y="300" width="40" height="40" fill-opacity="0.4"/>
    <rect x="310" y="240" width="40" height="40"/><rect x="370" y="240" width="40" height="40" fill-opacity="0.4"/>
    <rect x="510" y="280" width="40" height="40" fill-opacity="0.4"/><rect x="570" y="280" width="40" height="40"/>
    <rect x="710" y="220" width="40" height="40"/><rect x="770" y="220" width="40" height="40" fill-opacity="0.4"/>
    <rect x="910" y="300" width="40" height="40" fill-opacity="0.4"/><rect x="970" y="300" width="40" height="40"/>
  </g>
  <rect x="0" y="540" width="1200" height="60" fill="#0c0d10" fill-opacity="0.6"/>
</svg>
